<?xml version="1.0" encoding="UTF-8"?>
<svg id="Main" xmlns="http://www.w3.org/2000/svg" xmlns:xlink="http://www.w3.org/1999/xlink" viewBox="0 0 242.83 414.19">
  <defs>
    <style>
      .cls-1 {
        stroke-width: 2.5px;
      }

      .cls-1, .cls-2, .cls-3, .cls-4, .cls-5, .cls-6, .cls-7, .cls-8 {
        stroke-miterlimit: 10;
      }

      .cls-1, .cls-2, .cls-9, .cls-8 {
        fill: none;
      }

      .cls-1, .cls-8 {
        stroke: #fef54e;
      }

      .cls-10 {
        fill: #ec9029;
      }

      .cls-2, .cls-4, .cls-5, .cls-6, .cls-7 {
        stroke: #000;
      }

      .cls-3 {
        stroke: #fff;
      }

      .cls-3, .cls-11, .cls-4 {
        fill: #fff;
      }

      .cls-12 {
        fill: #1e3568;
      }

      .cls-13, .cls-7 {
        fill: #ed0c29;
      }

      .cls-14 {
        clip-path: url(#clippath-1);
      }

      .cls-5, .cls-15 {
        fill: #fef54e;
      }

      .cls-16 {
        fill: #ff0d2c;
      }

      .cls-17 {
        clip-path: url(#clippath-3);
      }

      .cls-6 {
        fill: #962323;
      }

      .cls-18 {
        clip-path: url(#clippath-2);
      }

      .cls-8 {
        stroke-width: 5px;
      }

      .cls-19 {
        clip-path: url(#clippath);
      }
    </style>
    <clipPath id="clippath">
      <rect id="Mask" class="cls-9" x="121.42" y="-7.05" width="136.81" height="460.02"/>
    </clipPath>
    <clipPath id="clippath-1">
      <path id="Mask-2" data-name="Mask" class="cls-9" d="M120.97.75l9.39,6.02v92.96c19.35-.5,39.28,2.8,59.78,7.18l-8.68,15.67c-19.38-5.69-39.59-7.62-60.48-6.37"/>
    </clipPath>
    <clipPath id="clippath-2">
      <rect id="Mask-3" data-name="Mask" class="cls-9" x="-15.39" y="-7.05" width="136.81" height="460.02" transform="translate(106.03 445.93) rotate(-180)"/>
    </clipPath>
    <clipPath id="clippath-3">
      <path id="Mask-4" data-name="Mask" class="cls-9" d="M121.86.75l-9.39,6.02v92.96c-19.35-.5-39.28,2.8-59.78,7.18l8.68,15.67c19.38-5.69,39.59-7.62,60.48-6.37"/>
    </clipPath>
  </defs>
  <g id="R">
    <g class="cls-19">
      <g id="R-2" data-name="R">
        <g id="Ribbon_Back_R">
          <polygon class="cls-11" points="222.03 120.58 229.11 154.16 120.66 154.16 120.66 120.58 222.03 120.58"/>
          <path id="Ribbon" class="cls-6" d="M212.32,120.79c-13.35,7.99-19.74,18.17-22.18,29.59h-23.51c6.51-18.22,15.4-39.4,30.32-47.12"/>
          <polygon class="cls-7" points="131.81 136.42 133.55 155.51 157.11 153.57 155.59 134.19 131.81 136.42"/>
        </g>
        <g id="Crown_R">
          <g id="Red_Top" data-name="Red Top">
            <path id="Red1" class="cls-7" d="M120.97.75l9.39,6.02v92.96c19.35-.5,39.28,2.8,59.78,7.18,0,0-6.38,15.07-17.33,25.62-12.07,11.63-51.84,11.84-51.84,11.84"/>
            <path id="Red2" class="cls-7" d="M130.36,8.21c25.45,20.38,49.27,43.73,69.52,73.59.88,1.29.91,2.99.1,4.33l-12.34,20.26h-57.29V8.21Z"/>
            <path id="White" class="cls-11" d="M120.97,121.39c19.23-.47,37.91,1.83,56.09,6.58l4.39-5.39-1.26-.7,11.2-21.29c-18.43-5.55-37.1-8-54.92-8.27V22.33c21.79,18.53,42.26,40.5,61.43,67.21l2.67-6.39c-15.62-26.81-41.81-51.14-70.21-74.94h-9.39"/>
            <path id="LA1" class="cls-2" d="M130.36,8.21c25.45,20.38,49.27,43.73,69.52,73.59.88,1.29.91,2.99.1,4.33l-12.34,20.26h-57.29V8.21Z"/>
            <path id="LA2" class="cls-2" d="M120.97.75l9.39,6.02v92.96c19.35-.5,39.28,2.8,59.78,7.18,0,0-6.38,15.07-17.33,25.62-12.07,11.63-51.84,11.86-51.84,11.86"/>
          </g>
          <g id="Orange">
            <path id="Orange-2" data-name="Orange" class="cls-10" d="M120.97.75l9.39,6.02v92.96c19.35-.5,39.28,2.8,59.78,7.18l-8.68,15.67c-19.38-5.69-39.59-7.62-60.48-6.37"/>
            <g id="Dots">
              <g class="cls-14">
                <circle id="_5" data-name="5" class="cls-11" cx="120.97" cy="15.57" r="5.11"/>
                <circle id="_4" data-name="4" class="cls-11" cx="120.97" cy="58.2" r="5.11"/>
                <circle id="_3" data-name="3" class="cls-11" cx="120.97" cy="90.55" r="5.11"/>
                <circle id="_2" data-name="2" class="cls-11" cx="151.45" cy="108.36" r="5.11"/>
                <circle id="_1" data-name="1" class="cls-11" cx="183.27" cy="114.3" r="5.11"/>
              </g>
            </g>
            <path id="LA" class="cls-2" d="M120.97.75l9.39,6.02v92.96c19.35-.5,39.28,2.8,59.78,7.18-2.52,5.66-5.74,10.79-9.01,15.57-19.38-5.69-39.03-6.36-60.16-6.28"/>
          </g>
          <g id="Cross">
            <circle class="cls-11" cx="156.33" cy="72.52" r="15.22"/>
            <path class="cls-13" d="M165.67,70.06h-6.89v-6.89c0-.93-.76-1.69-1.69-1.69h-1.53c-.93,0-1.69.76-1.69,1.69v6.89h-6.89c-.93,0-1.69.76-1.69,1.69v1.53c0,.93.76,1.69,1.69,1.69h6.89v6.89c0,.93.76,1.69,1.69,1.69h1.53c.93,0,1.69-.76,1.69-1.69v-6.89h6.89c.93,0,1.69-.76,1.69-1.69v-1.53c0-.93-.76-1.69-1.69-1.69Z"/>
          </g>
        </g>
        <g id="Shield_R">
          <path d="M120.97,149.37h107.65c2.75,0,4.97,2.23,4.97,4.97v153.02c0,9.05-4.06,17.63-11.05,23.38l-101.57,83.39"/>
          <path class="cls-16" d="M120.48,156.7h100.75c2.57,0,4.65,2.08,4.65,4.65v143.21c0,8.47-3.8,16.5-10.34,21.88l-95.06,78.04"/>
          <path class="cls-12" d="M120.48,159.64h98.35c2.51,0,4.54,2.03,4.54,4.54v139.8c0,8.27-3.71,16.11-10.1,21.36l-92.8,76.18"/>
          <g id="Crown">
            <path class="cls-5" d="M120.97,212.7h17.6c.84,0,1.61-.45,2.03-1.19l4.88-8.67,10.56-18.77-14.98,6.15-.22-14.65-11.52,13.42-8.33-17.33"/>
            <line class="cls-2" x1="120.97" y1="203.91" x2="144.67" y2="203.91"/>
          </g>
        </g>
        <g id="Ribbon_Front_R">
          <line id="L" class="cls-1" x1="216.71" y1="134.83" x2="214.18" y2="148.32"/>
          <line id="LM" class="cls-1" x1="221.18" y1="136.96" x2="220.54" y2="150.67"/>
          <line id="M" class="cls-1" x1="226.37" y1="138.03" x2="227.96" y2="151.66"/>
          <line id="RM" class="cls-1" x1="231.16" y1="136.96" x2="234.81" y2="150.19"/>
          <line id="R-3" data-name="R" class="cls-1" x1="234.07" y1="133.15" x2="241.26" y2="144.85"/>
          <path class="cls-5" d="M212.07,132.15s.66,6.38,13.7,6.38c15.32,0,12.28-6.73,12.28-6.73"/>
          <path class="cls-7" d="M218.04,105.4c14.36,6.37,20.01,26.4,20.01,26.4h-26.05c-2.17-11.38-8.55-20.08-18-26.83,4.83-4.2,15.6-3.32,24.04.43Z"/>
        </g>
        <g id="Shell_R">
          <path class="cls-5" d="M123.27,327.6s4.92-8.21,8.57-6.31-.93,13.12-.93,13.12"/>
          <path class="cls-5" d="M120.13,323.7l36.88,32.82c3.87,3.46-.6,8.29-4.45,5.42l-8.98-7.99,8.2,10.25c2.7,4.49-2.82,7.22-5.55,3.84l-8.05-9.97,6.56,12.02c2.47,4.75-3.7,7.86-6.22,3.76l-6.11-12.52,3.5,15.32c.95,4.98-6.02,5.63-7.3,1.38l-3.47-16.16c.06,10.22.02,20.26-4.99,20.87"/>
        </g>
      </g>
    </g>
  </g>
  <g id="L-2" data-name="L">
    <g class="cls-18">
      <g id="L-3" data-name="L">
        <g id="Ribbon_Back_L">
          <polygon class="cls-11" points="20.81 120.58 13.73 154.16 122.18 154.16 122.18 120.58 20.81 120.58"/>
          <path id="Ribbon-2" data-name="Ribbon" class="cls-6" d="M30.51,120.79c13.35,7.99,19.74,18.17,22.18,29.59h23.51c-6.51-18.22-15.4-39.4-30.32-47.12"/>
          <polygon class="cls-7" points="111.03 136.42 109.28 155.51 85.72 153.57 87.24 134.19 111.03 136.42"/>
        </g>
        <g id="Crown_L">
          <g id="Red_Top-2" data-name="Red Top">
            <path id="Red1-2" data-name="Red1" class="cls-7" d="M121.86.75l-9.39,6.02v92.96c-19.35-.5-39.28,2.8-59.78,7.18,0,0,6.38,15.07,17.33,25.62,12.07,11.63,51.84,11.84,51.84,11.84"/>
            <path id="Red2-2" data-name="Red2" class="cls-7" d="M112.47,8.21c-25.45,20.38-49.27,43.73-69.52,73.59-.88,1.29-.91,2.99-.1,4.33l12.34,20.26h57.29s0-98.18,0-98.18Z"/>
            <path id="White-2" data-name="White" class="cls-11" d="M121.86,121.39c-19.23-.47-37.91,1.83-56.09,6.58l-4.39-5.39,1.26-.7-11.2-21.29c18.43-5.55,37.1-8,54.92-8.27V22.33c-21.79,18.53-42.26,40.5-61.43,67.21l-2.67-6.39c15.62-26.81,41.81-51.14,70.21-74.94h9.39"/>
            <path id="LA1-2" data-name="LA1" class="cls-2" d="M112.47,8.21c-25.45,20.38-49.27,43.73-69.52,73.59-.88,1.29-.91,2.99-.1,4.33l12.34,20.26h57.29s0-98.18,0-98.18Z"/>
            <path id="LA2-2" data-name="LA2" class="cls-2" d="M121.86.75l-9.39,6.02v92.96c-19.35-.5-39.28,2.8-59.78,7.18,0,0,6.38,15.07,17.33,25.62,12.07,11.63,51.84,11.84,51.84,11.84"/>
          </g>
          <g id="Orange-3" data-name="Orange">
            <path id="Orange-4" data-name="Orange" class="cls-10" d="M121.86.75l-9.39,6.02v92.96c-19.35-.5-39.28,2.8-59.78,7.18l8.68,15.67c19.38-5.69,39.59-7.62,60.48-6.37"/>
            <g id="Dots-2" data-name="Dots">
              <g class="cls-17">
                <circle id="_5-2" data-name="5" class="cls-11" cx="121.86" cy="15.57" r="5.11"/>
                <circle id="_4-2" data-name="4" class="cls-11" cx="121.86" cy="58.2" r="5.11"/>
                <circle id="_3-2" data-name="3" class="cls-11" cx="121.86" cy="90.55" r="5.11"/>
                <circle id="_2-2" data-name="2" class="cls-11" cx="91.39" cy="108.36" r="5.11"/>
                <circle id="_1-2" data-name="1" class="cls-11" cx="59.56" cy="114.3" r="5.11"/>
              </g>
            </g>
            <path id="LA-2" data-name="LA" class="cls-2" d="M121.86.75l-9.39,6.02v92.96c-19.35-.5-39.28,2.8-59.78,7.18,2.52,5.66,5.74,10.79,9.01,15.57,19.38-5.69,39.03-6.36,60.16-6.28"/>
          </g>
          <g id="Cross-2" data-name="Cross">
            <circle class="cls-11" cx="86.51" cy="72.52" r="15.22"/>
            <path class="cls-13" d="M77.17,70.06h6.89s0-6.89,0-6.89c0-.93.76-1.69,1.69-1.69h1.53c.93,0,1.69.76,1.69,1.69v6.89s6.89,0,6.89,0c.93,0,1.69.76,1.69,1.69v1.53c0,.93-.76,1.69-1.69,1.69h-6.89s0,6.89,0,6.89c0,.93-.76,1.69-1.69,1.69h-1.53c-.93,0-1.69-.76-1.69-1.69v-6.89s-6.89,0-6.89,0c-.93,0-1.69-.76-1.69-1.69v-1.53c0-.93.76-1.69,1.69-1.69Z"/>
          </g>
        </g>
        <g id="Shield_L">
          <path d="M121.86,149.37H14.21c-2.75,0-4.97,2.23-4.97,4.97v153.02c0,9.05,4.06,17.63,11.05,23.38l101.57,83.39"/>
          <path class="cls-16" d="M122.36,156.7H21.61c-2.57,0-4.65,2.08-4.65,4.65v143.21c0,8.47,3.8,16.5,10.34,21.88l95.06,78.04"/>
          <path class="cls-12" d="M122.36,159.64H24.01c-2.51,0-4.54,2.03-4.54,4.54v139.8c0,8.27,3.71,16.11,10.1,21.36l92.8,76.18"/>
          <g id="Crown-2" data-name="Crown">
            <path class="cls-5" d="M121.86,212.7h-17.6c-.84,0-1.61-.45-2.03-1.19l-4.88-8.67-10.56-18.77,14.98,6.15.22-14.65,11.52,13.42,8.33-17.33"/>
            <line class="cls-2" x1="121.86" y1="203.91" x2="98.16" y2="203.91"/>
          </g>
        </g>
        <g id="Ribbon_Front_L">
          <line id="L-4" data-name="L" class="cls-1" x1="8.76" y1="133.15" x2="1.58" y2="144.85"/>
          <line id="LM-2" data-name="LM" class="cls-1" x1="11.67" y1="136.96" x2="8.02" y2="150.19"/>
          <line id="M-2" data-name="M" class="cls-1" x1="16.46" y1="138.03" x2="14.87" y2="151.66"/>
          <line id="RM-2" data-name="RM" class="cls-1" x1="21.65" y1="136.96" x2="22.29" y2="150.67"/>
          <line id="R-4" data-name="R" class="cls-1" x1="26.12" y1="134.83" x2="28.66" y2="148.32"/>
          <path class="cls-5" d="M30.76,132.15s-.66,6.38-13.7,6.38c-15.32,0-12.28-6.73-12.28-6.73"/>
          <path class="cls-7" d="M24.79,105.4c-14.36,6.37-20.01,26.4-20.01,26.4h26.05c2.17-11.38,8.55-20.08,18-26.83-4.83-4.2-15.6-3.32-24.04.43Z"/>
        </g>
        <g id="Shell_L">
          <path class="cls-5" d="M119.56,327.6s-4.92-8.21-8.57-6.31.93,13.12.93,13.12"/>
          <path class="cls-5" d="M122.7,323.7l-36.88,32.82c-3.87,3.46.6,8.29,4.45,5.42l8.98-7.99-8.2,10.25c-2.7,4.49,2.82,7.22,5.55,3.84l8.05-9.97-6.56,12.02c-2.47,4.75,3.7,7.86,6.22,3.76l6.11-12.52-3.5,15.32c-.95,4.98,6.02,5.63,7.3,1.38l3.47-16.16c-.06,10.22-.02,20.26,4.99,20.87"/>
        </g>
      </g>
    </g>
  </g>
  <g id="Keybrand">
    <path id="Rod" class="cls-15" d="M64.29,316.08l-5.91-5.91,136.67-136.67c4.58-.92,6.48,1.12,5.91,5.91l-136.67,136.67Z"/>
    <path id="Thing" class="cls-15" d="M206.45,195l-6.27,6.27c-.8.8-2.1.8-2.9,0l-1.77-1.77c-.8-.8-.8-2.1,0-2.9l6.27-6.27-3.46-3.46c-.53-.53-1.39-.53-1.92,0l-28,28c-.53.53-.53,1.39,0,1.92l3.46,3.46,6.29-6.29c.8-.8,2.1-.8,2.9,0l1.77,1.77c.8.8.8,2.1,0,2.9l-6.29,6.29,7.69,7.69c1.8,1.8,4.71,1.8,6.51,0l6.63-6.63-3.73-3.73c-.83-.83-.83-2.17,0-2.99l7.17-7.17c.83-.83,2.17-.83,2.99,0l3.73,3.73,6.63-6.63c1.8-1.8,1.8-4.71,0-6.51l-7.69-7.69Z"/>
    <g id="Ring">
      <circle class="cls-15" cx="66.44" cy="308.23" r="13.15"/>
      <circle class="cls-8" cx="78.19" cy="311.28" r="10.39"/>
      <circle class="cls-8" cx="60.73" cy="296.05" r="10.39"/>
      <circle class="cls-8" cx="57.76" cy="317.66" r="10.39"/>
    </g>
  </g>
  <g id="Key">
    <path id="Rod-2" data-name="Rod" class="cls-15" d="M82.79,209.63l-5.92,5.92,112.44,112.44c4.1.43,6.02-1.61,5.92-5.92l-112.44-112.44Z"/>
    <rect class="cls-15" x="66.98" y="205.07" width="20.89" height="10.34" rx="3.96" ry="3.96" transform="translate(-125.98 116.33) rotate(-45)"/>
    <path id="Thing-2" data-name="Thing" class="cls-15" d="M48.37,198.65c-1.67-4.6.43-10.22,8.84-13.91-5.4-1.14-11.06-.71-15.15,5.15s-3.14,12.65,3.1,15.86,13.96-2.29,13.96-2.29l-5.48,8.57s12.96,4.14,10.34,15.65c-2.62,11.51-16.89,5.31-16.89,5.31,0,0,5.52-2.28,4.48-8.69s-20.12-7.98-23.08-22.87,7.69-28.17,25.29-28.63c7.5-.2,17.54,2.55,21.94,9.31,5.93,9.1,4.95,22.96,4.95,22.96l-9.14,9.14h-5.76s6.76-12.51.48-16.03-17.89.48-17.89.48Z"/>
  </g>
  <g id="Book">
    <g id="Book_R">
      <path id="Cover" class="cls-5" d="M120.88,311.47c9.77-5.27,37.71.37,67.86,3.2v-66.19c-18.96-5.09-42.2-4.26-67.86-2.91"/>
      <path id="P1" class="cls-4" d="M120.88,255.52s1.04-8.5,17.25-8.48,46.17,3.45,46.17,3.45v56.37s-43.91-6.7-53.21-5.78c-9.3.93-10.22,4.88-10.22,4.88"/>
      <path id="P2" class="cls-4" d="M120.88,249.71s.91-8.5,15.23-8.48,40.75,3.45,40.75,3.45v56.37s-38.75-6.7-46.96-5.78c-8.21.93-9.02,4.88-9.02,4.88"/>
      <path id="P3" class="cls-4" d="M120.88,245.29s.76-8.18,12.65-8.16,33.86,3.32,33.86,3.32v52.81s-32.2-5.03-39.02-4.14-7.49,4.7-7.49,4.7"/>
    </g>
    <g id="Book_L">
      <path id="Cover-2" data-name="Cover" class="cls-5" d="M120.88,311.47c-9.77-5.27-37.71.37-67.86,3.2v-66.19c18.96-5.09,42.2-4.26,67.86-2.91"/>
      <path id="P1-2" data-name="P1" class="cls-4" d="M120.88,255.52s-1.04-8.5-17.25-8.48c-16.16.02-46.17,3.45-46.17,3.45v56.37s43.91-6.7,53.21-5.78c9.3.93,10.22,4.88,10.22,4.88"/>
      <path id="P2-2" data-name="P2" class="cls-4" d="M120.88,249.71s-.91-8.5-15.23-8.48c-14.26.02-40.75,3.45-40.75,3.45v56.37s38.75-6.7,46.96-5.78,9.02,4.88,9.02,4.88"/>
      <path id="P3-2" data-name="P3" class="cls-4" d="M120.88,245.29s-.76-8.18-12.65-8.16-33.86,3.32-33.86,3.32v52.81s32.2-5.03,39.02-4.14c6.82.89,7.49,4.7,7.49,4.7"/>
    </g>
    <g id="Book_Patch">
      <path class="cls-4" d="M128.96,303.05c0-4.39-8.09-10.56-8.09-10.56,0,0-8.09,6.17-8.09,10.56s8.09,6.47,8.09,6.47c0,0,8.09-2.09,8.09-6.47Z"/>
      <rect id="Page" class="cls-3" x="118.99" y="247.04" width="3.91" height="21.46"/>
      <line id="M-3" data-name="M" class="cls-7" x1="120.88" y1="245.13" x2="120.88" y2="292.49"/>
    </g>
  </g>
</svg>