<?xml version="1.0" encoding="UTF-8"?>
<svg id="Layer_1" data-name="Layer 1" xmlns="http://www.w3.org/2000/svg" viewBox="0 0 100 100">
  <defs>
    <style>
      .cls-1 {
        fill: #fff;
        stroke-width: 0px;
      }
    </style>
  </defs>
  <path class="cls-1" d="m87.39,6.61H12.61C5.64,6.61,0,12.26,0,19.22v61.56c0,6.96,5.64,12.61,12.61,12.61h74.78c6.96,0,12.61-5.64,12.61-12.61V19.22c0-6.96-5.64-12.61-12.61-12.61Zm-60.58,59.25h-9.45c-2.63,0-4.76-2.13-4.76-4.76s2.13-4.76,4.76-4.76h9.45c2.63,0,4.76,2.13,4.76,4.76s-2.13,4.76-4.76,4.76Zm0-18.67h-9.45c-2.63,0-4.76-2.13-4.76-4.76s2.13-4.76,4.76-4.76h9.45c2.63,0,4.76,2.13,4.76,4.76s-2.13,4.76-4.76,4.76Zm0-18.67h-9.45c-2.63,0-4.76-2.13-4.76-4.76s2.13-4.76,4.76-4.76h9.45c2.63,0,4.76,2.13,4.76,4.76s-2.13,4.76-4.76,4.76Zm60.87,52.69h-43.98V18.78h43.98v62.44Z"/>
</svg>